<?xml version="1.0" encoding="UTF-8"?>
<svg xmlns="http://www.w3.org/2000/svg" xmlns:xlink="http://www.w3.org/1999/xlink" width="400" height="311" viewBox="0 0 400 311">
<path fill-rule="nonzero" fill="rgb(90.196078%, 0%, 0%)" fill-opacity="1" d="M 24 10 L 195 10 L 195 181 L 24 181 Z M 24 10 "/>
<path fill-rule="nonzero" fill="rgb(0%, 12.941176%, 44.313725%)" fill-opacity="1" d="M 24 181 L 195 181 L 195 255 L 110 300 L 24 255 "/>
<path fill-rule="nonzero" fill="rgb(100%, 100%, 100%)" fill-opacity="1" d="M 48.578125 245 L 46.28125 245 L 45.359375 242.609375 L 41.15625 242.609375 L 40.296875 245 L 38.046875 245 L 42.140625 234.5 L 44.375 234.5 Z M 44.6875 240.84375 L 43.234375 236.953125 L 41.8125 240.84375 Z M 49.5 245.5 L 51.8125 245.78125 C 51.84375 246.050781 51.929688 246.234375 52.078125 246.328125 C 52.265625 246.472656 52.5625 246.546875 52.96875 246.546875 C 53.5 246.546875 53.894531 246.46875 54.15625 246.3125 C 54.332031 246.207031 54.46875 246.035156 54.5625 245.796875 C 54.625 245.628906 54.65625 245.320312 54.65625 244.875 L 54.65625 243.765625 C 54.050781 244.589844 53.289062 245 52.375 245 C 51.351562 245 50.539062 244.570312 49.9375 243.703125 C 49.476562 243.015625 49.25 242.167969 49.25 241.15625 C 49.25 239.875 49.550781 238.902344 50.15625 238.234375 C 50.769531 237.558594 51.535156 237.21875 52.453125 237.21875 C 53.390625 237.21875 54.164062 237.632812 54.78125 238.453125 L 54.78125 237.390625 L 56.671875 237.390625 L 56.671875 244.21875 C 56.671875 245.113281 56.59375 245.785156 56.4375 246.234375 C 56.289062 246.679688 56.082031 247.03125 55.8125 247.28125 C 55.550781 247.53125 55.195312 247.726562 54.75 247.875 C 54.300781 248.019531 53.734375 248.09375 53.046875 248.09375 C 51.765625 248.09375 50.851562 247.867188 50.3125 247.421875 C 49.769531 246.984375 49.5 246.425781 49.5 245.75 C 49.5 245.675781 49.5 245.59375 49.5 245.5 Z M 51.3125 241.03125 C 51.3125 241.84375 51.46875 242.4375 51.78125 242.8125 C 52.09375 243.1875 52.476562 243.375 52.9375 243.375 C 53.425781 243.375 53.835938 243.183594 54.171875 242.796875 C 54.515625 242.414062 54.6875 241.84375 54.6875 241.09375 C 54.6875 240.304688 54.523438 239.71875 54.203125 239.34375 C 53.878906 238.960938 53.46875 238.765625 52.96875 238.765625 C 52.488281 238.765625 52.09375 238.953125 51.78125 239.328125 C 51.46875 239.703125 51.3125 240.273438 51.3125 241.03125 Z M 58.191406 241.09375 C 58.191406 240.417969 58.351562 239.765625 58.675781 239.140625 C 59.007812 238.515625 59.476562 238.042969 60.082031 237.71875 C 60.683594 237.386719 61.355469 237.21875 62.097656 237.21875 C 63.253906 237.21875 64.195312 237.59375 64.925781 238.34375 C 65.664062 239.09375 66.035156 240.039062 66.035156 241.171875 C 66.035156 242.328125 65.664062 243.289062 64.925781 244.046875 C 64.183594 244.796875 63.246094 245.171875 62.113281 245.171875 C 61.414062 245.171875 60.746094 245.015625 60.113281 244.703125 C 59.488281 244.382812 59.007812 243.917969 58.675781 243.3125 C 58.351562 242.710938 58.191406 241.96875 58.191406 241.09375 Z M 60.253906 241.203125 C 60.253906 241.953125 60.429688 242.53125 60.785156 242.9375 C 61.136719 243.335938 61.582031 243.53125 62.113281 243.53125 C 62.632812 243.53125 63.070312 243.335938 63.425781 242.9375 C 63.789062 242.53125 63.972656 241.949219 63.972656 241.1875 C 63.972656 240.4375 63.789062 239.867188 63.425781 239.46875 C 63.070312 239.0625 62.632812 238.859375 62.113281 238.859375 C 61.582031 238.859375 61.136719 239.0625 60.785156 239.46875 C 60.429688 239.867188 60.253906 240.445312 60.253906 241.203125 Z M 66.539062 245.171875 L 69.132812 234.3125 L 70.648438 234.3125 L 68.023438 245.171875 Z M 78.054688 243.125 L 78.054688 245 L 70.992188 245 C 71.074219 244.292969 71.304688 243.625 71.679688 243 C 72.0625 242.367188 72.820312 241.523438 73.945312 240.46875 C 74.851562 239.625 75.40625 239.054688 75.617188 238.75 C 75.898438 238.335938 76.039062 237.921875 76.039062 237.515625 C 76.039062 237.070312 75.914062 236.726562 75.664062 236.484375 C 75.421875 236.246094 75.09375 236.125 74.679688 236.125 C 74.25 236.125 73.914062 236.257812 73.664062 236.515625 C 73.421875 236.765625 73.28125 237.183594 73.242188 237.765625 L 71.242188 237.5625 C 71.355469 236.460938 71.726562 235.667969 72.351562 235.1875 C 72.984375 234.699219 73.777344 234.453125 74.726562 234.453125 C 75.757812 234.453125 76.570312 234.734375 77.164062 235.296875 C 77.757812 235.851562 78.054688 236.542969 78.054688 237.375 C 78.054688 237.855469 77.964844 238.308594 77.789062 238.734375 C 77.621094 239.164062 77.355469 239.609375 76.992188 240.078125 C 76.75 240.382812 76.3125 240.824219 75.679688 241.40625 C 75.042969 241.992188 74.636719 242.382812 74.460938 242.578125 C 74.292969 242.765625 74.15625 242.949219 74.054688 243.125 Z M 82.820312 234.453125 C 83.828125 234.453125 84.621094 234.820312 85.195312 235.546875 C 85.882812 236.402344 86.226562 237.828125 86.226562 239.828125 C 86.226562 241.808594 85.882812 243.234375 85.195312 244.109375 C 84.621094 244.820312 83.828125 245.171875 82.820312 245.171875 C 81.796875 245.171875 80.96875 244.78125 80.335938 244 C 79.710938 243.21875 79.398438 241.820312 79.398438 239.796875 C 79.398438 237.820312 79.742188 236.398438 80.429688 235.53125 C 81 234.8125 81.796875 234.453125 82.820312 234.453125 Z M 82.820312 236.125 C 82.570312 236.125 82.351562 236.203125 82.164062 236.359375 C 81.976562 236.515625 81.828125 236.792969 81.726562 237.1875 C 81.578125 237.710938 81.507812 238.589844 81.507812 239.828125 C 81.507812 241.058594 81.570312 241.902344 81.695312 242.359375 C 81.820312 242.820312 81.976562 243.125 82.164062 243.28125 C 82.351562 243.4375 82.570312 243.515625 82.820312 243.515625 C 83.058594 243.515625 83.273438 243.4375 83.460938 243.28125 C 83.65625 243.125 83.808594 242.84375 83.914062 242.4375 C 84.046875 241.929688 84.117188 241.058594 84.117188 239.828125 C 84.117188 238.589844 84.054688 237.742188 83.929688 237.28125 C 83.804688 236.824219 83.648438 236.515625 83.460938 236.359375 C 83.273438 236.203125 83.058594 236.125 82.820312 236.125 Z M 94.367188 243.125 L 94.367188 245 L 87.304688 245 C 87.386719 244.292969 87.617188 243.625 87.992188 243 C 88.375 242.367188 89.132812 241.523438 90.257812 240.46875 C 91.164062 239.625 91.71875 239.054688 91.929688 238.75 C 92.210938 238.335938 92.351562 237.921875 92.351562 237.515625 C 92.351562 237.070312 92.226562 236.726562 91.976562 236.484375 C 91.734375 236.246094 91.40625 236.125 90.992188 236.125 C 90.5625 236.125 90.226562 236.257812 89.976562 236.515625 C 89.734375 236.765625 89.59375 237.183594 89.554688 237.765625 L 87.554688 237.5625 C 87.667969 236.460938 88.039062 235.667969 88.664062 235.1875 C 89.296875 234.699219 90.089844 234.453125 91.039062 234.453125 C 92.070312 234.453125 92.882812 234.734375 93.476562 235.296875 C 94.070312 235.851562 94.367188 236.542969 94.367188 237.375 C 94.367188 237.855469 94.277344 238.308594 94.101562 238.734375 C 93.933594 239.164062 93.667969 239.609375 93.304688 240.078125 C 93.0625 240.382812 92.625 240.824219 91.992188 241.40625 C 91.355469 241.992188 90.949219 242.382812 90.773438 242.578125 C 90.605469 242.765625 90.46875 242.949219 90.367188 243.125 Z M 95.757812 242.296875 L 97.757812 242.09375 C 97.820312 242.542969 97.992188 242.902344 98.273438 243.171875 C 98.554688 243.433594 98.875 243.5625 99.242188 243.5625 C 99.65625 243.5625 100.011719 243.398438 100.304688 243.0625 C 100.59375 242.71875 100.742188 242.203125 100.742188 241.515625 C 100.742188 240.871094 100.59375 240.386719 100.304688 240.0625 C 100.023438 239.742188 99.648438 239.578125 99.179688 239.578125 C 98.605469 239.578125 98.089844 239.835938 97.632812 240.34375 L 95.992188 240.109375 L 97.023438 234.640625 L 102.351562 234.640625 L 102.351562 236.53125 L 98.554688 236.53125 L 98.242188 238.3125 C 98.6875 238.085938 99.148438 237.96875 99.617188 237.96875 C 100.511719 237.96875 101.265625 238.296875 101.882812 238.953125 C 102.507812 239.601562 102.820312 240.4375 102.820312 241.46875 C 102.820312 242.335938 102.570312 243.109375 102.070312 243.796875 C 101.382812 244.714844 100.433594 245.171875 99.226562 245.171875 C 98.257812 245.171875 97.464844 244.917969 96.851562 244.40625 C 96.234375 243.886719 95.871094 243.183594 95.757812 242.296875 Z M 108.15625 242.203125 L 108.15625 240.1875 L 112.109375 240.1875 L 112.109375 242.203125 Z M 126.273438 245 L 123.976562 245 L 123.054688 242.609375 L 118.851562 242.609375 L 117.992188 245 L 115.742188 245 L 119.835938 234.5 L 122.070312 234.5 Z M 122.382812 240.84375 L 120.929688 236.953125 L 119.507812 240.84375 Z M 127.195312 245.5 L 129.507812 245.78125 C 129.539062 246.050781 129.625 246.234375 129.773438 246.328125 C 129.960938 246.472656 130.257812 246.546875 130.664062 246.546875 C 131.195312 246.546875 131.589844 246.46875 131.851562 246.3125 C 132.027344 246.207031 132.164062 246.035156 132.257812 245.796875 C 132.320312 245.628906 132.351562 245.320312 132.351562 244.875 L 132.351562 243.765625 C 131.746094 244.589844 130.984375 245 130.070312 245 C 129.046875 245 128.234375 244.570312 127.632812 243.703125 C 127.171875 243.015625 126.945312 242.167969 126.945312 241.15625 C 126.945312 239.875 127.246094 238.902344 127.851562 238.234375 C 128.464844 237.558594 129.230469 237.21875 130.148438 237.21875 C 131.085938 237.21875 131.859375 237.632812 132.476562 238.453125 L 132.476562 237.390625 L 134.367188 237.390625 L 134.367188 244.21875 C 134.367188 245.113281 134.289062 245.785156 134.132812 246.234375 C 133.984375 246.679688 133.777344 247.03125 133.507812 247.28125 C 133.246094 247.53125 132.890625 247.726562 132.445312 247.875 C 131.996094 248.019531 131.429688 248.09375 130.742188 248.09375 C 129.460938 248.09375 128.546875 247.867188 128.007812 247.421875 C 127.464844 246.984375 127.195312 246.425781 127.195312 245.75 C 127.195312 245.675781 127.195312 245.59375 127.195312 245.5 Z M 129.007812 241.03125 C 129.007812 241.84375 129.164062 242.4375 129.476562 242.8125 C 129.789062 243.1875 130.171875 243.375 130.632812 243.375 C 131.121094 243.375 131.53125 243.183594 131.867188 242.796875 C 132.210938 242.414062 132.382812 241.84375 132.382812 241.09375 C 132.382812 240.304688 132.21875 239.71875 131.898438 239.34375 C 131.574219 238.960938 131.164062 238.765625 130.664062 238.765625 C 130.183594 238.765625 129.789062 238.953125 129.476562 239.328125 C 129.164062 239.703125 129.007812 240.273438 129.007812 241.03125 Z M 135.890625 241.09375 C 135.890625 240.417969 136.050781 239.765625 136.375 239.140625 C 136.707031 238.515625 137.175781 238.042969 137.78125 237.71875 C 138.382812 237.386719 139.054688 237.21875 139.796875 237.21875 C 140.953125 237.21875 141.894531 237.59375 142.625 238.34375 C 143.363281 239.09375 143.734375 240.039062 143.734375 241.171875 C 143.734375 242.328125 143.363281 243.289062 142.625 244.046875 C 141.882812 244.796875 140.945312 245.171875 139.8125 245.171875 C 139.113281 245.171875 138.445312 245.015625 137.8125 244.703125 C 137.1875 244.382812 136.707031 243.917969 136.375 243.3125 C 136.050781 242.710938 135.890625 241.96875 135.890625 241.09375 Z M 137.953125 241.203125 C 137.953125 241.953125 138.128906 242.53125 138.484375 242.9375 C 138.835938 243.335938 139.28125 243.53125 139.8125 243.53125 C 140.332031 243.53125 140.769531 243.335938 141.125 242.9375 C 141.488281 242.53125 141.671875 241.949219 141.671875 241.1875 C 141.671875 240.4375 141.488281 239.867188 141.125 239.46875 C 140.769531 239.0625 140.332031 238.859375 139.8125 238.859375 C 139.28125 238.859375 138.835938 239.0625 138.484375 239.46875 C 138.128906 239.867188 137.953125 240.445312 137.953125 241.203125 Z M 144.238281 245.171875 L 146.832031 234.3125 L 148.347656 234.3125 L 145.722656 245.171875 Z M 155.75 243.125 L 155.75 245 L 148.6875 245 C 148.769531 244.292969 149 243.625 149.375 243 C 149.757812 242.367188 150.515625 241.523438 151.640625 240.46875 C 152.546875 239.625 153.101562 239.054688 153.3125 238.75 C 153.59375 238.335938 153.734375 237.921875 153.734375 237.515625 C 153.734375 237.070312 153.609375 236.726562 153.359375 236.484375 C 153.117188 236.246094 152.789062 236.125 152.375 236.125 C 151.945312 236.125 151.609375 236.257812 151.359375 236.515625 C 151.117188 236.765625 150.976562 237.183594 150.9375 237.765625 L 148.9375 237.5625 C 149.050781 236.460938 149.421875 235.667969 150.046875 235.1875 C 150.679688 234.699219 151.472656 234.453125 152.421875 234.453125 C 153.453125 234.453125 154.265625 234.734375 154.859375 235.296875 C 155.453125 235.851562 155.75 236.542969 155.75 237.375 C 155.75 237.855469 155.660156 238.308594 155.484375 238.734375 C 155.316406 239.164062 155.050781 239.609375 154.6875 240.078125 C 154.445312 240.382812 154.007812 240.824219 153.375 241.40625 C 152.738281 241.992188 152.332031 242.382812 152.15625 242.578125 C 151.988281 242.765625 151.851562 242.949219 151.75 243.125 Z M 160.515625 234.453125 C 161.523438 234.453125 162.316406 234.820312 162.890625 235.546875 C 163.578125 236.402344 163.921875 237.828125 163.921875 239.828125 C 163.921875 241.808594 163.578125 243.234375 162.890625 244.109375 C 162.316406 244.820312 161.523438 245.171875 160.515625 245.171875 C 159.492188 245.171875 158.664062 244.78125 158.03125 244 C 157.40625 243.21875 157.09375 241.820312 157.09375 239.796875 C 157.09375 237.820312 157.4375 236.398438 158.125 235.53125 C 158.695312 234.8125 159.492188 234.453125 160.515625 234.453125 Z M 160.515625 236.125 C 160.265625 236.125 160.046875 236.203125 159.859375 236.359375 C 159.671875 236.515625 159.523438 236.792969 159.421875 237.1875 C 159.273438 237.710938 159.203125 238.589844 159.203125 239.828125 C 159.203125 241.058594 159.265625 241.902344 159.390625 242.359375 C 159.515625 242.820312 159.671875 243.125 159.859375 243.28125 C 160.046875 243.4375 160.265625 243.515625 160.515625 243.515625 C 160.753906 243.515625 160.96875 243.4375 161.15625 243.28125 C 161.351562 243.125 161.503906 242.84375 161.609375 242.4375 C 161.742188 241.929688 161.8125 241.058594 161.8125 239.828125 C 161.8125 238.589844 161.75 237.742188 161.625 237.28125 C 161.5 236.824219 161.34375 236.515625 161.15625 236.359375 C 160.96875 236.203125 160.753906 236.125 160.515625 236.125 Z M 172.0625 243.125 L 172.0625 245 L 165 245 C 165.082031 244.292969 165.3125 243.625 165.6875 243 C 166.070312 242.367188 166.828125 241.523438 167.953125 240.46875 C 168.859375 239.625 169.414062 239.054688 169.625 238.75 C 169.90625 238.335938 170.046875 237.921875 170.046875 237.515625 C 170.046875 237.070312 169.921875 236.726562 169.671875 236.484375 C 169.429688 236.246094 169.101562 236.125 168.6875 236.125 C 168.257812 236.125 167.921875 236.257812 167.671875 236.515625 C 167.429688 236.765625 167.289062 237.183594 167.25 237.765625 L 165.25 237.5625 C 165.363281 236.460938 165.734375 235.667969 166.359375 235.1875 C 166.992188 234.699219 167.785156 234.453125 168.734375 234.453125 C 169.765625 234.453125 170.578125 234.734375 171.171875 235.296875 C 171.765625 235.851562 172.0625 236.542969 172.0625 237.375 C 172.0625 237.855469 171.972656 238.308594 171.796875 238.734375 C 171.628906 239.164062 171.363281 239.609375 171 240.078125 C 170.757812 240.382812 170.320312 240.824219 169.6875 241.40625 C 169.050781 241.992188 168.644531 242.382812 168.46875 242.578125 C 168.300781 242.765625 168.164062 242.949219 168.0625 243.125 Z M 180.234375 237.0625 L 178.296875 237.28125 C 178.242188 236.886719 178.117188 236.59375 177.921875 236.40625 C 177.722656 236.210938 177.460938 236.109375 177.140625 236.109375 C 176.710938 236.109375 176.351562 236.304688 176.0625 236.6875 C 175.769531 237.0625 175.582031 237.855469 175.5 239.0625 C 176 238.480469 176.625 238.1875 177.375 238.1875 C 178.21875 238.1875 178.9375 238.507812 179.53125 239.140625 C 180.132812 239.777344 180.4375 240.605469 180.4375 241.625 C 180.4375 242.699219 180.117188 243.558594 179.484375 244.203125 C 178.859375 244.851562 178.050781 245.171875 177.0625 245.171875 C 176 245.171875 175.125 244.761719 174.4375 243.9375 C 173.757812 243.117188 173.421875 241.765625 173.421875 239.890625 C 173.421875 237.964844 173.773438 236.578125 174.484375 235.734375 C 175.203125 234.882812 176.128906 234.453125 177.265625 234.453125 C 178.054688 234.453125 178.710938 234.679688 179.234375 235.125 C 179.765625 235.574219 180.097656 236.21875 180.234375 237.0625 Z M 175.671875 241.46875 C 175.671875 242.117188 175.820312 242.621094 176.125 242.984375 C 176.425781 243.339844 176.769531 243.515625 177.15625 243.515625 C 177.53125 243.515625 177.84375 243.371094 178.09375 243.078125 C 178.34375 242.789062 178.46875 242.308594 178.46875 241.640625 C 178.46875 240.953125 178.332031 240.453125 178.0625 240.140625 C 177.789062 239.820312 177.457031 239.65625 177.0625 239.65625 C 176.675781 239.65625 176.347656 239.8125 176.078125 240.125 C 175.804688 240.429688 175.671875 240.875 175.671875 241.46875 Z M 38.046875 231.722656 "/>
<path fill-rule="nonzero" fill="rgb(100%, 100%, 100%)" fill-opacity="1" d="M 67.34375 36.828125 L 67.34375 39.15625 C 67.34375 43.460938 65.960938 46.945312 63.203125 49.609375 C 60.453125 52.277344 56.898438 53.609375 52.546875 53.609375 C 47.898438 53.609375 44.050781 52.101562 41 49.078125 C 37.945312 46.046875 36.421875 42.355469 36.421875 38 C 36.421875 33.605469 37.929688 29.890625 40.953125 26.859375 C 43.972656 23.820312 47.722656 22.296875 52.203125 22.296875 C 55.003906 22.296875 57.566406 22.9375 59.890625 24.21875 C 62.210938 25.492188 64.019531 27.1875 65.3125 29.3125 L 60.234375 32.234375 C 59.523438 30.996094 58.445312 29.992188 57 29.21875 C 55.550781 28.449219 53.9375 28.0625 52.15625 28.0625 C 49.289062 28.0625 46.929688 29 45.078125 30.875 C 43.234375 32.75 42.3125 35.125 42.3125 38 C 42.3125 40.835938 43.25 43.179688 45.125 45.03125 C 47 46.875 49.488281 47.796875 52.59375 47.796875 C 54.882812 47.796875 56.78125 47.292969 58.28125 46.28125 C 59.789062 45.261719 60.816406 43.859375 61.359375 42.078125 L 52.25 42.078125 L 52.25 36.828125 Z M 35 19.761719 "/>
<path fill-rule="nonzero" fill="rgb(100%, 100%, 100%)" fill-opacity="1" d="M 76.078125 34.800781 C 76.597656 33.425781 77.453125 32.394531 78.640625 31.707031 C 79.828125 31.011719 81.15625 30.660156 82.625 30.660156 L 82.625 36.863281 C 80.925781 36.667969 79.410156 37.011719 78.078125 37.894531 C 76.742188 38.78125 76.078125 40.253906 76.078125 42.316406 L 76.078125 52.597656 L 70.53125 52.597656 L 70.53125 31.097656 L 76.078125 31.097656 Z M 68 19.359375 "/>
<path fill-rule="nonzero" fill="rgb(100%, 100%, 100%)" fill-opacity="1" d="M 90.820312 44.128906 C 91.570312 46.828125 93.589844 48.175781 96.882812 48.175781 C 99.007812 48.175781 100.617188 47.457031 101.710938 46.019531 L 106.179688 48.597656 C 104.054688 51.671875 100.929688 53.207031 96.804688 53.207031 C 93.25 53.207031 90.398438 52.136719 88.242188 49.988281 C 86.09375 47.832031 85.023438 45.121094 85.023438 41.847656 C 85.023438 38.609375 86.078125 35.90625 88.195312 33.738281 C 90.320312 31.574219 93.042969 30.488281 96.367188 30.488281 C 99.523438 30.488281 102.125 31.582031 104.179688 33.769531 C 106.230469 35.949219 107.257812 38.640625 107.257812 41.847656 C 107.257812 42.566406 107.183594 43.328125 107.039062 44.128906 Z M 90.742188 39.832031 L 101.710938 39.832031 C 101.386719 38.363281 100.730469 37.277344 99.742188 36.566406 C 98.75 35.847656 97.625 35.488281 96.367188 35.488281 C 94.875 35.488281 93.640625 35.871094 92.664062 36.628906 C 91.695312 37.390625 91.054688 38.457031 90.742188 39.832031 Z M 83.601562 19.359375 "/>
<path fill-rule="nonzero" fill="rgb(100%, 100%, 100%)" fill-opacity="1" d="M 126.976562 31.097656 L 132.523438 31.097656 L 132.523438 52.597656 L 126.976562 52.597656 L 126.976562 50.066406 C 125.320312 52.160156 122.984375 53.207031 119.976562 53.207031 C 117.101562 53.207031 114.636719 52.109375 112.585938 49.910156 C 110.542969 47.714844 109.523438 45.027344 109.523438 41.847656 C 109.523438 38.671875 110.542969 35.984375 112.585938 33.785156 C 114.636719 31.589844 117.101562 30.488281 119.976562 30.488281 C 122.984375 30.488281 125.320312 31.535156 126.976562 33.628906 Z M 116.742188 46.222656 C 117.855469 47.347656 119.273438 47.910156 120.992188 47.910156 C 122.71875 47.910156 124.148438 47.347656 125.273438 46.222656 C 126.40625 45.089844 126.976562 43.628906 126.976562 41.847656 C 126.976562 40.066406 126.40625 38.613281 125.273438 37.488281 C 124.148438 36.355469 122.71875 35.785156 120.992188 35.785156 C 119.273438 35.785156 117.855469 36.355469 116.742188 37.488281 C 115.625 38.613281 115.070312 40.066406 115.070312 41.847656 C 115.070312 43.628906 115.625 45.089844 116.742188 46.222656 Z M 108.101562 19.359375 "/>
<path fill-rule="nonzero" fill="rgb(100%, 100%, 100%)" fill-opacity="1" d="M 150.828125 36.425781 L 145.96875 36.425781 L 145.96875 45.378906 C 145.96875 46.121094 146.15625 46.660156 146.53125 47.003906 C 146.90625 47.347656 147.453125 47.546875 148.171875 47.597656 C 148.890625 47.640625 149.773438 47.628906 150.828125 47.566406 L 150.828125 52.597656 C 147.015625 53.023438 144.328125 52.664062 142.765625 51.519531 C 141.203125 50.375 140.421875 48.328125 140.421875 45.378906 L 140.421875 36.425781 L 136.6875 36.425781 L 136.6875 31.097656 L 140.421875 31.097656 L 140.421875 26.753906 L 145.96875 25.082031 L 145.96875 31.097656 L 150.828125 31.097656 Z M 136 19.359375 "/>
<path fill-rule="nonzero" fill="rgb(100%, 100%, 100%)" fill-opacity="1" d="M 51.515625 60.40625 C 54.410156 60.40625 56.847656 61.382812 58.828125 63.328125 C 60.804688 65.277344 61.796875 67.671875 61.796875 70.515625 C 61.796875 73.351562 60.804688 75.742188 58.828125 77.6875 C 56.847656 79.636719 54.410156 80.609375 51.515625 80.609375 L 46.234375 80.609375 L 46.234375 90.5 L 40.296875 90.5 L 40.296875 60.40625 Z M 51.515625 75.0625 C 52.773438 75.0625 53.820312 74.625 54.65625 73.75 C 55.488281 72.875 55.90625 71.792969 55.90625 70.5 C 55.90625 69.1875 55.488281 68.105469 54.65625 67.25 C 53.820312 66.386719 52.773438 65.953125 51.515625 65.953125 L 46.234375 65.953125 L 46.234375 75.0625 Z M 37.5 57.261719 "/>
<path fill-rule="nonzero" fill="rgb(100%, 100%, 100%)" fill-opacity="1" d="M 66.03125 91 L 66.03125 59.609375 L 71.578125 59.609375 L 71.578125 91 Z M 63.5 57.761719 "/>
<path fill-rule="nonzero" fill="rgb(100%, 100%, 100%)" fill-opacity="1" d="M 93.175781 69 L 98.722656 69 L 98.722656 90.5 L 93.175781 90.5 L 93.175781 87.96875 C 91.519531 90.0625 89.183594 91.109375 86.175781 91.109375 C 83.300781 91.109375 80.835938 90.011719 78.785156 87.8125 C 76.742188 85.617188 75.722656 82.929688 75.722656 79.75 C 75.722656 76.574219 76.742188 73.886719 78.785156 71.6875 C 80.835938 69.492188 83.300781 68.390625 86.175781 68.390625 C 89.183594 68.390625 91.519531 69.4375 93.175781 71.53125 Z M 82.941406 84.125 C 84.054688 85.25 85.472656 85.8125 87.191406 85.8125 C 88.917969 85.8125 90.347656 85.25 91.472656 84.125 C 92.605469 82.992188 93.175781 81.53125 93.175781 79.75 C 93.175781 77.96875 92.605469 76.515625 91.472656 75.390625 C 90.347656 74.257812 88.917969 73.6875 87.191406 73.6875 C 85.472656 73.6875 84.054688 74.257812 82.941406 75.390625 C 81.824219 76.515625 81.269531 77.96875 81.269531 79.75 C 81.269531 81.53125 81.824219 82.992188 82.941406 84.125 Z M 74.300781 57.261719 "/>
<path fill-rule="nonzero" fill="rgb(100%, 100%, 100%)" fill-opacity="1" d="M 114.765625 91.109375 C 111.523438 91.109375 108.820312 90.023438 106.65625 87.84375 C 104.5 85.65625 103.421875 82.960938 103.421875 79.75 C 103.421875 76.542969 104.5 73.851562 106.65625 71.671875 C 108.820312 69.484375 111.523438 68.390625 114.765625 68.390625 C 116.859375 68.390625 118.765625 68.898438 120.484375 69.90625 C 122.203125 70.90625 123.507812 72.25 124.40625 73.9375 L 119.625 76.734375 C 119.195312 75.851562 118.546875 75.152344 117.671875 74.640625 C 116.796875 74.121094 115.816406 73.859375 114.734375 73.859375 C 113.066406 73.859375 111.6875 74.414062 110.59375 75.515625 C 109.507812 76.621094 108.96875 78.03125 108.96875 79.75 C 108.96875 81.4375 109.507812 82.835938 110.59375 83.9375 C 111.6875 85.042969 113.066406 85.59375 114.734375 85.59375 C 115.847656 85.59375 116.84375 85.34375 117.71875 84.84375 C 118.59375 84.34375 119.242188 83.652344 119.671875 82.765625 L 124.484375 85.515625 C 123.535156 87.203125 122.203125 88.558594 120.484375 89.578125 C 118.765625 90.597656 116.859375 91.109375 114.765625 91.109375 Z M 102 57.261719 "/>
<path fill-rule="nonzero" fill="rgb(100%, 100%, 100%)" fill-opacity="1" d="M 133.21875 82.03125 C 133.96875 84.730469 135.988281 86.078125 139.28125 86.078125 C 141.40625 86.078125 143.015625 85.359375 144.109375 83.921875 L 148.578125 86.5 C 146.453125 89.574219 143.328125 91.109375 139.203125 91.109375 C 135.648438 91.109375 132.796875 90.039062 130.640625 87.890625 C 128.492188 85.734375 127.421875 83.023438 127.421875 79.75 C 127.421875 76.511719 128.476562 73.808594 130.59375 71.640625 C 132.71875 69.476562 135.441406 68.390625 138.765625 68.390625 C 141.921875 68.390625 144.523438 69.484375 146.578125 71.671875 C 148.628906 73.851562 149.65625 76.542969 149.65625 79.75 C 149.65625 80.46875 149.582031 81.230469 149.4375 82.03125 Z M 133.140625 77.734375 L 144.109375 77.734375 C 143.785156 76.265625 143.128906 75.179688 142.140625 74.46875 C 141.148438 73.75 140.023438 73.390625 138.765625 73.390625 C 137.273438 73.390625 136.039062 73.773438 135.0625 74.53125 C 134.09375 75.292969 133.453125 76.359375 133.140625 77.734375 Z M 126 57.261719 "/>
<path fill-rule="nonzero" fill="rgb(100%, 100%, 100%)" fill-opacity="1" d="M 58.703125 98.90625 L 58.703125 104.578125 L 50.578125 104.578125 L 50.578125 129 L 44.640625 129 L 44.640625 104.578125 L 36.5625 104.578125 L 36.5625 98.90625 Z M 36 95.761719 "/>
<path fill-rule="nonzero" fill="rgb(100%, 100%, 100%)" fill-opacity="1" d="M 75.859375 125.613281 C 73.648438 127.8125 70.953125 128.910156 67.765625 128.910156 C 64.585938 128.910156 61.898438 127.8125 59.703125 125.613281 C 57.515625 123.417969 56.421875 120.730469 56.421875 117.550781 C 56.421875 114.375 57.515625 111.6875 59.703125 109.488281 C 61.898438 107.292969 64.585938 106.191406 67.765625 106.191406 C 70.953125 106.191406 73.648438 107.292969 75.859375 109.488281 C 78.066406 111.6875 79.171875 114.375 79.171875 117.550781 C 79.171875 120.730469 78.066406 123.417969 75.859375 125.613281 Z M 63.625 121.816406 C 64.726562 122.933594 66.109375 123.488281 67.765625 123.488281 C 69.429688 123.488281 70.820312 122.933594 71.9375 121.816406 C 73.0625 120.691406 73.625 119.269531 73.625 117.550781 C 73.625 115.832031 73.0625 114.417969 71.9375 113.300781 C 70.820312 112.175781 69.429688 111.613281 67.765625 111.613281 C 66.109375 111.613281 64.726562 112.175781 63.625 113.300781 C 62.519531 114.417969 61.96875 115.832031 61.96875 117.550781 C 61.96875 119.269531 62.519531 120.691406 63.625 121.816406 Z M 55 95.0625 "/>
<path fill-rule="nonzero" fill="rgb(100%, 100%, 100%)" fill-opacity="1" d="M 45.578125 167.300781 L 37.140625 137.207031 L 43.375 137.207031 L 49.140625 159.519531 L 55.421875 137.207031 L 60.5 137.207031 L 66.8125 159.519531 L 72.578125 137.207031 L 78.8125 137.207031 L 70.390625 167.300781 L 63.640625 167.300781 L 57.953125 147.441406 L 52.328125 167.300781 Z M 36.5 134.0625 "/>
<path fill-rule="nonzero" fill="rgb(100%, 100%, 100%)" fill-opacity="1" d="M 97.660156 164.210938 C 95.449219 166.410156 92.753906 167.507812 89.566406 167.507812 C 86.386719 167.507812 83.699219 166.410156 81.503906 164.210938 C 79.316406 162.015625 78.222656 159.328125 78.222656 156.148438 C 78.222656 152.972656 79.316406 150.285156 81.503906 148.085938 C 83.699219 145.890625 86.386719 144.789062 89.566406 144.789062 C 92.753906 144.789062 95.449219 145.890625 97.660156 148.085938 C 99.867188 150.285156 100.972656 152.972656 100.972656 156.148438 C 100.972656 159.328125 99.867188 162.015625 97.660156 164.210938 Z M 85.425781 160.414062 C 86.527344 161.53125 87.910156 162.085938 89.566406 162.085938 C 91.230469 162.085938 92.621094 161.53125 93.738281 160.414062 C 94.863281 159.289062 95.425781 157.867188 95.425781 156.148438 C 95.425781 154.429688 94.863281 153.015625 93.738281 151.898438 C 92.621094 150.773438 91.230469 150.210938 89.566406 150.210938 C 87.910156 150.210938 86.527344 150.773438 85.425781 151.898438 C 84.320312 153.015625 83.769531 154.429688 83.769531 156.148438 C 83.769531 157.867188 84.320312 159.289062 85.425781 160.414062 Z M 76.800781 133.660156 "/>
<path fill-rule="nonzero" fill="rgb(100%, 100%, 100%)" fill-opacity="1" d="M 110.378906 149.503906 C 110.898438 148.128906 111.753906 147.097656 112.941406 146.410156 C 114.128906 145.714844 115.457031 145.363281 116.925781 145.363281 L 116.925781 151.566406 C 115.226562 151.371094 113.710938 151.714844 112.378906 152.597656 C 111.042969 153.484375 110.378906 154.957031 110.378906 157.019531 L 110.378906 167.300781 L 104.832031 167.300781 L 104.832031 145.800781 L 110.378906 145.800781 Z M 102.300781 134.0625 "/>
<path fill-rule="nonzero" fill="rgb(100%, 100%, 100%)" fill-opacity="1" d="M 140.660156 167.199219 L 134.207031 167.199219 L 126.378906 157.433594 L 126.378906 167.199219 L 120.832031 167.199219 L 120.832031 137.105469 L 126.378906 137.105469 L 126.378906 155.152344 L 133.785156 145.699219 L 140.410156 145.699219 L 131.753906 156.324219 Z M 118.300781 133.960938 "/>
<path fill-rule="nonzero" fill="rgb(100%, 100%, 100%)" fill-opacity="1" d="M 148.640625 166 L 147.65625 164.296875 L 146.921875 164.296875 L 146.921875 166 L 145.953125 166 L 145.953125 161.09375 L 147.921875 161.09375 C 148.367188 161.09375 148.75 161.257812 149.0625 161.578125 C 149.382812 161.890625 149.546875 162.273438 149.546875 162.71875 C 149.546875 163.023438 149.457031 163.304688 149.28125 163.5625 C 149.113281 163.824219 148.882812 164.023438 148.59375 164.15625 L 149.6875 166 Z M 146.921875 162 L 146.921875 163.453125 L 147.921875 163.453125 C 148.097656 163.453125 148.25 163.386719 148.375 163.25 C 148.507812 163.105469 148.578125 162.933594 148.578125 162.734375 C 148.578125 162.527344 148.507812 162.355469 148.375 162.21875 C 148.25 162.074219 148.097656 162 147.921875 162 Z M 145.5 160.589844 "/>
<path fill-rule="nonzero" fill="rgb(100%, 100%, 100%)" fill-opacity="1" d="M 147.5 158.8125 C 144.953125 158.8125 142.90625 160.859375 142.90625 163.40625 C 142.90625 165.9375 144.953125 168 147.5 168 C 150.046875 168 152.09375 165.9375 152.09375 163.40625 C 152.09375 160.859375 150.046875 158.8125 147.5 158.8125 Z M 147.5 160.046875 C 149.34375 160.046875 150.859375 161.546875 150.859375 163.40625 C 150.859375 165.25 149.34375 166.765625 147.5 166.765625 C 145.65625 166.765625 144.140625 165.25 144.140625 163.40625 C 144.140625 161.546875 145.65625 160.046875 147.5 160.046875 Z M 142.5 155.601562 "/>
<path fill-rule="nonzero" fill="rgb(100%, 100%, 100%)" fill-opacity="1" d="M 44.515625 192.25 C 45.785156 192.25 46.976562 192.433594 48.09375 192.796875 C 49.21875 193.164062 50.21875 193.6875 51.09375 194.375 C 51.96875 195.0625 52.695312 195.902344 53.28125 196.890625 C 53.875 197.882812 54.265625 198.996094 54.453125 200.234375 L 49.9375 200.625 C 49.644531 199.125 49.007812 197.996094 48.03125 197.234375 C 47.050781 196.464844 45.832031 196.078125 44.375 196.078125 C 43.457031 196.078125 42.617188 196.246094 41.859375 196.578125 C 41.109375 196.902344 40.46875 197.367188 39.9375 197.96875 C 39.40625 198.5625 38.992188 199.292969 38.703125 200.15625 C 38.410156 201.011719 38.265625 201.96875 38.265625 203.03125 C 38.265625 204.167969 38.421875 205.167969 38.734375 206.03125 C 39.054688 206.886719 39.492188 207.609375 40.046875 208.203125 C 40.597656 208.789062 41.242188 209.230469 41.984375 209.53125 C 42.734375 209.824219 43.539062 209.96875 44.40625 209.96875 C 45.84375 209.96875 47.054688 209.59375 48.046875 208.84375 C 49.035156 208.085938 49.664062 206.976562 49.9375 205.515625 L 54.484375 205.90625 C 54.273438 207.148438 53.875 208.25 53.28125 209.21875 C 52.695312 210.1875 51.96875 211.015625 51.09375 211.703125 C 50.226562 212.382812 49.234375 212.902344 48.109375 213.265625 C 46.992188 213.628906 45.804688 213.8125 44.546875 213.8125 C 43.015625 213.8125 41.59375 213.566406 40.28125 213.078125 C 38.976562 212.578125 37.847656 211.867188 36.890625 210.9375 C 35.941406 210.011719 35.203125 208.882812 34.671875 207.546875 C 34.140625 206.214844 33.875 204.710938 33.875 203.03125 C 33.875 201.335938 34.140625 199.820312 34.671875 198.484375 C 35.203125 197.140625 35.941406 196.011719 36.890625 195.09375 C 37.847656 194.167969 38.972656 193.464844 40.265625 192.984375 C 41.566406 192.496094 42.984375 192.25 44.515625 192.25 Z M 32.5 192.585938 "/>
<path fill-rule="nonzero" fill="rgb(100%, 100%, 100%)" fill-opacity="1" d="M 61.078125 207.5625 C 61.109375 208.460938 61.382812 209.171875 61.90625 209.703125 C 62.4375 210.234375 63.164062 210.5 64.09375 210.5 C 64.800781 210.5 65.382812 210.359375 65.84375 210.078125 C 66.300781 209.796875 66.601562 209.40625 66.75 208.90625 L 70.875 209.109375 C 70.738281 209.796875 70.472656 210.429688 70.078125 211 C 69.691406 211.5625 69.203125 212.058594 68.609375 212.484375 C 68.023438 212.902344 67.351562 213.230469 66.59375 213.46875 C 65.84375 213.695312 65.046875 213.8125 64.203125 213.8125 C 63.109375 213.8125 62.097656 213.640625 61.171875 213.296875 C 60.242188 212.945312 59.453125 212.445312 58.796875 211.796875 C 58.148438 211.140625 57.644531 210.351562 57.28125 209.421875 C 56.914062 208.484375 56.734375 207.4375 56.734375 206.28125 C 56.734375 205.105469 56.914062 204.054688 57.28125 203.125 C 57.644531 202.199219 58.148438 201.414062 58.796875 200.765625 C 59.453125 200.109375 60.226562 199.609375 61.125 199.265625 C 62.019531 198.921875 63.007812 198.75 64.09375 198.75 C 65.132812 198.75 66.082031 198.914062 66.9375 199.234375 C 67.789062 199.558594 68.519531 200.03125 69.125 200.65625 C 69.726562 201.273438 70.191406 202.027344 70.515625 202.921875 C 70.847656 203.820312 71.015625 204.824219 71.015625 205.9375 L 71.015625 207.5625 Z M 64.0625 201.9375 C 63.1875 201.9375 62.484375 202.195312 61.953125 202.703125 C 61.421875 203.203125 61.128906 203.917969 61.078125 204.84375 L 66.890625 204.84375 C 66.859375 203.949219 66.613281 203.242188 66.15625 202.71875 C 65.695312 202.199219 65 201.9375 64.0625 201.9375 Z M 55.5 192.585938 "/>
<path fill-rule="nonzero" fill="rgb(100%, 100%, 100%)" fill-opacity="1" d="M 81.9375 202.828125 C 80.757812 202.828125 79.828125 203.136719 79.140625 203.75 C 78.453125 204.355469 78.109375 205.15625 78.109375 206.15625 L 78.109375 213.5 L 74.015625 213.5 L 74.015625 199.03125 L 77.96875 199.03125 L 77.96875 200.671875 C 78.28125 200.195312 78.738281 199.777344 79.34375 199.421875 C 79.957031 199.070312 80.820312 198.890625 81.9375 198.890625 Z M 72 192.585938 "/>
<path fill-rule="nonzero" fill="rgb(100%, 100%, 100%)" fill-opacity="1" d="M 89.699219 207.820312 C 89.699219 208.625 89.917969 209.191406 90.355469 209.523438 C 90.792969 209.847656 91.300781 210.007812 91.886719 210.007812 C 92.175781 210.007812 92.421875 210 92.621094 209.976562 C 92.816406 209.945312 92.988281 209.910156 93.136719 209.867188 L 93.136719 213.507812 C 92.84375 213.546875 92.53125 213.585938 92.199219 213.617188 C 91.875 213.65625 91.433594 213.679688 90.871094 213.679688 C 90.089844 213.679688 89.371094 213.578125 88.714844 213.382812 C 88.066406 213.1875 87.515625 212.894531 87.058594 212.507812 C 86.597656 212.113281 86.238281 211.609375 85.980469 210.992188 C 85.730469 210.378906 85.605469 209.648438 85.605469 208.804688 L 85.636719 202.445312 L 83.011719 202.445312 L 83.011719 198.929688 L 85.667969 198.929688 L 85.699219 194.132812 L 89.777344 194.132812 L 89.761719 198.929688 L 93.136719 198.929688 L 93.136719 202.445312 L 89.730469 202.445312 Z M 82.699219 192.484375 "/>
<path fill-rule="nonzero" fill="rgb(100%, 100%, 100%)" fill-opacity="1" d="M 97.761719 191.828125 C 98.449219 191.828125 99.03125 192.070312 99.511719 192.546875 C 99.988281 193.015625 100.230469 193.601562 100.230469 194.296875 C 100.230469 194.964844 99.988281 195.539062 99.511719 196.015625 C 99.03125 196.496094 98.449219 196.734375 97.761719 196.734375 C 97.074219 196.734375 96.496094 196.496094 96.027344 196.015625 C 95.558594 195.539062 95.324219 194.964844 95.324219 194.296875 C 95.324219 193.953125 95.386719 193.636719 95.511719 193.34375 C 95.644531 193.042969 95.824219 192.78125 96.042969 192.5625 C 96.269531 192.335938 96.53125 192.15625 96.824219 192.03125 C 97.113281 191.898438 97.425781 191.828125 97.761719 191.828125 Z M 95.714844 213.5 L 95.714844 199.03125 L 99.808594 199.03125 L 99.808594 213.5 Z M 93.699219 192.585938 "/>
<path fill-rule="nonzero" fill="rgb(100%, 100%, 100%)" fill-opacity="1" d="M 110.597656 191.578125 C 110.910156 191.578125 111.167969 191.585938 111.378906 191.59375 C 111.597656 191.605469 111.808594 191.625 112.019531 191.65625 L 112.019531 195.1875 C 111.894531 195.167969 111.753906 195.152344 111.597656 195.140625 C 111.449219 195.132812 111.273438 195.125 111.066406 195.125 C 110.355469 195.125 109.773438 195.339844 109.316406 195.765625 C 108.855469 196.183594 108.628906 196.734375 108.628906 197.421875 L 108.628906 199.03125 L 111.988281 199.03125 L 111.988281 202.546875 L 108.628906 202.546875 L 108.628906 213.5 L 104.566406 213.5 L 104.566406 202.546875 L 101.941406 202.546875 L 101.941406 199.03125 L 104.566406 199.03125 L 104.566406 197.546875 C 104.566406 196.632812 104.710938 195.808594 105.003906 195.078125 C 105.292969 194.351562 105.699219 193.726562 106.222656 193.203125 C 106.742188 192.683594 107.371094 192.28125 108.113281 192 C 108.851562 191.71875 109.679688 191.578125 110.597656 191.578125 Z M 101.800781 192.585938 "/>
<path fill-rule="nonzero" fill="rgb(100%, 100%, 100%)" fill-opacity="1" d="M 116.5625 191.828125 C 117.25 191.828125 117.832031 192.070312 118.3125 192.546875 C 118.789062 193.015625 119.03125 193.601562 119.03125 194.296875 C 119.03125 194.964844 118.789062 195.539062 118.3125 196.015625 C 117.832031 196.496094 117.25 196.734375 116.5625 196.734375 C 115.875 196.734375 115.296875 196.496094 114.828125 196.015625 C 114.359375 195.539062 114.125 194.964844 114.125 194.296875 C 114.125 193.953125 114.1875 193.636719 114.3125 193.34375 C 114.445312 193.042969 114.625 192.78125 114.84375 192.5625 C 115.070312 192.335938 115.332031 192.15625 115.625 192.03125 C 115.914062 191.898438 116.226562 191.828125 116.5625 191.828125 Z M 114.515625 213.5 L 114.515625 199.03125 L 118.609375 199.03125 L 118.609375 213.5 Z M 112.5 192.585938 "/>
<path fill-rule="nonzero" fill="rgb(100%, 100%, 100%)" fill-opacity="1" d="M 128.855469 198.75 C 129.730469 198.75 130.550781 198.875 131.324219 199.125 C 132.105469 199.375 132.796875 199.746094 133.402344 200.234375 C 134.003906 200.714844 134.503906 201.304688 134.902344 202 C 135.308594 202.6875 135.578125 203.46875 135.714844 204.34375 L 131.714844 204.6875 C 131.621094 203.9375 131.3125 203.34375 130.792969 202.90625 C 130.28125 202.46875 129.636719 202.25 128.855469 202.25 C 127.894531 202.25 127.109375 202.601562 126.496094 203.296875 C 125.878906 203.996094 125.574219 204.992188 125.574219 206.28125 C 125.574219 207.5625 125.878906 208.554688 126.496094 209.25 C 127.109375 209.9375 127.894531 210.28125 128.855469 210.28125 C 129.65625 210.28125 130.308594 210.074219 130.808594 209.65625 C 131.316406 209.230469 131.625 208.652344 131.730469 207.921875 L 135.714844 208.296875 C 135.558594 209.152344 135.28125 209.921875 134.886719 210.609375 C 134.5 211.289062 134.003906 211.867188 133.402344 212.34375 C 132.796875 212.8125 132.109375 213.179688 131.339844 213.4375 C 130.578125 213.6875 129.75 213.8125 128.855469 213.8125 C 127.792969 213.8125 126.808594 213.640625 125.902344 213.296875 C 124.996094 212.945312 124.207031 212.449219 123.542969 211.8125 C 122.886719 211.167969 122.371094 210.382812 121.996094 209.453125 C 121.621094 208.515625 121.433594 207.460938 121.433594 206.28125 C 121.433594 205.085938 121.621094 204.023438 121.996094 203.09375 C 122.371094 202.15625 122.878906 201.367188 123.527344 200.71875 C 124.183594 200.074219 124.96875 199.585938 125.886719 199.25 C 126.800781 198.917969 127.792969 198.75 128.855469 198.75 Z M 120.199219 192.585938 "/>
<path fill-rule="nonzero" fill="rgb(100%, 100%, 100%)" fill-opacity="1" d="M 144.070312 198.648438 C 146.027344 198.648438 147.515625 199.140625 148.539062 200.117188 C 149.570312 201.097656 150.085938 202.546875 150.085938 204.460938 L 150.085938 213.398438 L 146.148438 213.398438 L 146.148438 212.226562 C 145.730469 212.65625 145.21875 213.007812 144.617188 213.289062 C 144.011719 213.570312 143.289062 213.710938 142.445312 213.710938 C 140.984375 213.710938 139.820312 213.347656 138.945312 212.617188 C 138.070312 211.890625 137.632812 210.828125 137.632812 209.429688 C 137.632812 208.617188 137.789062 207.941406 138.101562 207.398438 C 138.421875 206.847656 138.851562 206.40625 139.382812 206.070312 C 139.914062 205.726562 140.527344 205.476562 141.226562 205.320312 C 141.921875 205.164062 142.65625 205.066406 143.429688 205.023438 L 146.007812 204.882812 L 146.007812 204.320312 C 146.007812 202.832031 145.382812 202.085938 144.132812 202.085938 C 143.414062 202.085938 142.898438 202.285156 142.585938 202.679688 C 142.273438 203.066406 142.117188 203.503906 142.117188 203.992188 L 138.023438 203.820312 C 138.023438 203.1875 138.164062 202.5625 138.445312 201.945312 C 138.726562 201.332031 139.125 200.78125 139.648438 200.289062 C 140.167969 199.789062 140.796875 199.394531 141.539062 199.101562 C 142.289062 198.800781 143.132812 198.648438 144.070312 198.648438 Z M 143.820312 207.710938 C 143.203125 207.753906 142.699219 207.890625 142.304688 208.117188 C 141.90625 208.335938 141.710938 208.707031 141.710938 209.226562 C 141.710938 209.71875 141.867188 210.0625 142.179688 210.257812 C 142.5 210.445312 142.90625 210.539062 143.398438 210.539062 C 144.148438 210.539062 144.765625 210.347656 145.257812 209.960938 C 145.757812 209.566406 146.007812 208.976562 146.007812 208.195312 L 146.007812 207.570312 Z M 136.398438 192.484375 "/>
<path fill-rule="nonzero" fill="rgb(100%, 100%, 100%)" fill-opacity="1" d="M 164.015625 213.601562 L 164.015625 212.117188 C 163.640625 212.609375 163.082031 213.03125 162.34375 213.382812 C 161.613281 213.734375 160.734375 213.914062 159.703125 213.914062 C 158.671875 213.914062 157.726562 213.734375 156.875 213.382812 C 156.03125 213.03125 155.300781 212.519531 154.6875 211.851562 C 154.070312 211.1875 153.59375 210.394531 153.25 209.476562 C 152.90625 208.550781 152.734375 207.519531 152.734375 206.382812 C 152.734375 205.238281 152.90625 204.207031 153.25 203.289062 C 153.59375 202.363281 154.070312 201.570312 154.6875 200.914062 C 155.300781 200.25 156.03125 199.738281 156.875 199.382812 C 157.726562 199.03125 158.671875 198.851562 159.703125 198.851562 C 160.648438 198.851562 161.472656 199.003906 162.171875 199.304688 C 162.878906 199.597656 163.421875 199.957031 163.796875 200.382812 L 163.796875 191.851562 L 167.859375 191.851562 L 167.859375 213.601562 Z M 160.375 202.351562 C 159.351562 202.351562 158.515625 202.703125 157.859375 203.398438 C 157.203125 204.097656 156.875 205.09375 156.875 206.382812 C 156.875 207.664062 157.203125 208.65625 157.859375 209.351562 C 158.515625 210.039062 159.351562 210.382812 160.375 210.382812 C 161.382812 210.382812 162.207031 210.0625 162.84375 209.414062 C 163.476562 208.769531 163.796875 207.859375 163.796875 206.679688 L 163.796875 206.039062 C 163.796875 204.863281 163.476562 203.957031 162.84375 203.320312 C 162.207031 202.675781 161.382812 202.351562 160.375 202.351562 Z M 151.5 192.683594 "/>
<path fill-rule="nonzero" fill="rgb(100%, 100%, 100%)" fill-opacity="1" d="M 177.171875 198.75 C 179.128906 198.75 180.617188 199.242188 181.640625 200.21875 C 182.671875 201.199219 183.1875 202.648438 183.1875 204.5625 L 183.1875 213.5 L 179.25 213.5 L 179.25 212.328125 C 178.832031 212.757812 178.320312 213.109375 177.71875 213.390625 C 177.113281 213.671875 176.390625 213.8125 175.546875 213.8125 C 174.085938 213.8125 172.921875 213.449219 172.046875 212.71875 C 171.171875 211.992188 170.734375 210.929688 170.734375 209.53125 C 170.734375 208.71875 170.890625 208.042969 171.203125 207.5 C 171.523438 206.949219 171.953125 206.507812 172.484375 206.171875 C 173.015625 205.828125 173.628906 205.578125 174.328125 205.421875 C 175.023438 205.265625 175.757812 205.167969 176.53125 205.125 L 179.109375 204.984375 L 179.109375 204.421875 C 179.109375 202.933594 178.484375 202.1875 177.234375 202.1875 C 176.515625 202.1875 176 202.386719 175.6875 202.78125 C 175.375 203.167969 175.21875 203.605469 175.21875 204.09375 L 171.125 203.921875 C 171.125 203.289062 171.265625 202.664062 171.546875 202.046875 C 171.828125 201.433594 172.226562 200.882812 172.75 200.390625 C 173.269531 199.890625 173.898438 199.496094 174.640625 199.203125 C 175.390625 198.902344 176.234375 198.75 177.171875 198.75 Z M 176.921875 207.8125 C 176.304688 207.855469 175.800781 207.992188 175.40625 208.21875 C 175.007812 208.4375 174.8125 208.808594 174.8125 209.328125 C 174.8125 209.820312 174.96875 210.164062 175.28125 210.359375 C 175.601562 210.546875 176.007812 210.640625 176.5 210.640625 C 177.25 210.640625 177.867188 210.449219 178.359375 210.0625 C 178.859375 209.667969 179.109375 209.078125 179.109375 208.296875 L 179.109375 207.671875 Z M 169.5 192.585938 "/>
<path fill-rule="nonzero" fill="rgb(100%, 100%, 100%)" fill-opacity="1" d="M 87.511719 265.28125 C 88.019531 265.28125 88.488281 265.34375 88.917969 265.46875 C 89.34375 265.59375 89.714844 265.789062 90.027344 266.046875 C 90.339844 266.308594 90.578125 266.636719 90.746094 267.03125 C 90.921875 267.417969 91.011719 267.875 91.011719 268.40625 C 91.011719 268.9375 90.90625 269.386719 90.699219 269.75 C 90.5 270.117188 90.238281 270.402344 89.917969 270.609375 C 90.34375 270.777344 90.707031 271.078125 91.011719 271.515625 C 91.324219 271.953125 91.480469 272.527344 91.480469 273.234375 C 91.480469 273.777344 91.386719 274.25 91.199219 274.65625 C 91.019531 275.054688 90.769531 275.390625 90.449219 275.671875 C 90.136719 275.945312 89.753906 276.152344 89.308594 276.296875 C 88.859375 276.433594 88.375 276.5 87.855469 276.5 L 82.824219 276.5 L 82.824219 265.28125 Z M 85.136719 269.78125 L 87.371094 269.78125 C 87.753906 269.78125 88.0625 269.6875 88.292969 269.5 C 88.53125 269.304688 88.652344 268.992188 88.652344 268.5625 C 88.652344 268.136719 88.519531 267.824219 88.261719 267.625 C 88.011719 267.417969 87.671875 267.3125 87.246094 267.3125 L 85.136719 267.3125 Z M 85.136719 274.4375 L 87.574219 274.4375 C 88.03125 274.4375 88.402344 274.339844 88.683594 274.140625 C 88.964844 273.933594 89.105469 273.589844 89.105469 273.109375 C 89.105469 272.632812 88.964844 272.289062 88.683594 272.078125 C 88.402344 271.859375 88.042969 271.75 87.605469 271.75 L 85.136719 271.75 Z M 81.699219 265.296875 "/>
<path fill-rule="nonzero" fill="rgb(100%, 100%, 100%)" fill-opacity="1" d="M 97.527344 272.46875 L 95.652344 272.46875 L 95.652344 276.5 L 93.324219 276.5 L 93.324219 265.28125 L 98.121094 265.28125 C 98.652344 265.28125 99.140625 265.367188 99.589844 265.53125 C 100.035156 265.6875 100.417969 265.917969 100.730469 266.21875 C 101.050781 266.523438 101.300781 266.898438 101.480469 267.34375 C 101.65625 267.792969 101.746094 268.304688 101.746094 268.875 C 101.746094 269.65625 101.582031 270.324219 101.261719 270.875 C 100.9375 271.417969 100.496094 271.824219 99.933594 272.09375 L 102.324219 276.5 L 99.714844 276.5 Z M 97.839844 270.40625 C 98.285156 270.40625 98.65625 270.277344 98.949219 270.015625 C 99.238281 269.757812 99.386719 269.375 99.386719 268.875 C 99.386719 268.367188 99.238281 267.980469 98.949219 267.71875 C 98.65625 267.449219 98.285156 267.3125 97.839844 267.3125 L 95.636719 267.3125 L 95.636719 270.40625 Z M 92.199219 265.296875 "/>
<path fill-rule="nonzero" fill="rgb(100%, 100%, 100%)" fill-opacity="1" d="M 111.671875 276.5 L 110.75 274.34375 L 106.078125 274.34375 L 105.15625 276.5 L 102.625 276.5 L 107.4375 265.28125 L 109.390625 265.28125 L 114.21875 276.5 Z M 109.9375 272.453125 L 108.421875 268.859375 L 106.90625 272.453125 Z M 102.5 265.296875 "/>
<path fill-rule="nonzero" fill="rgb(100%, 100%, 100%)" fill-opacity="1" d="M 118.421875 265.109375 C 119.023438 265.109375 119.578125 265.1875 120.078125 265.34375 C 120.578125 265.5 121.007812 265.730469 121.375 266.03125 C 121.75 266.335938 122.035156 266.699219 122.234375 267.125 C 122.441406 267.542969 122.554688 268.023438 122.578125 268.5625 L 120.203125 268.6875 C 120.191406 268.210938 120.035156 267.828125 119.734375 267.546875 C 119.429688 267.265625 119.007812 267.125 118.46875 267.125 C 117.925781 267.125 117.507812 267.25 117.21875 267.5 C 116.9375 267.75 116.796875 268.074219 116.796875 268.46875 C 116.796875 268.6875 116.835938 268.871094 116.921875 269.015625 C 117.015625 269.152344 117.144531 269.277344 117.3125 269.390625 C 117.488281 269.496094 117.710938 269.589844 117.984375 269.671875 C 118.265625 269.757812 118.597656 269.84375 118.984375 269.9375 C 119.554688 270.085938 120.078125 270.246094 120.546875 270.421875 C 121.015625 270.601562 121.414062 270.8125 121.75 271.0625 C 122.09375 271.3125 122.351562 271.617188 122.53125 271.96875 C 122.707031 272.3125 122.796875 272.734375 122.796875 273.234375 C 122.796875 273.828125 122.6875 274.34375 122.46875 274.78125 C 122.25 275.210938 121.953125 275.5625 121.578125 275.84375 C 121.203125 276.125 120.765625 276.335938 120.265625 276.46875 C 119.765625 276.601562 119.234375 276.671875 118.671875 276.671875 C 118.023438 276.671875 117.425781 276.59375 116.875 276.4375 C 116.332031 276.28125 115.859375 276.054688 115.453125 275.75 C 115.054688 275.4375 114.742188 275.058594 114.515625 274.609375 C 114.296875 274.164062 114.179688 273.648438 114.171875 273.0625 L 116.53125 272.9375 C 116.539062 273.199219 116.597656 273.4375 116.703125 273.65625 C 116.816406 273.867188 116.96875 274.046875 117.15625 274.203125 C 117.34375 274.351562 117.566406 274.464844 117.828125 274.546875 C 118.085938 274.621094 118.367188 274.65625 118.671875 274.65625 C 119.191406 274.65625 119.613281 274.558594 119.9375 274.359375 C 120.269531 274.164062 120.4375 273.828125 120.4375 273.359375 C 120.4375 272.933594 120.238281 272.621094 119.84375 272.421875 C 119.457031 272.214844 118.890625 272.011719 118.140625 271.8125 C 117.628906 271.6875 117.148438 271.554688 116.703125 271.40625 C 116.253906 271.25 115.859375 271.054688 115.515625 270.8125 C 115.179688 270.574219 114.914062 270.273438 114.71875 269.90625 C 114.53125 269.542969 114.4375 269.089844 114.4375 268.546875 C 114.4375 268.089844 114.515625 267.652344 114.671875 267.234375 C 114.835938 266.820312 115.085938 266.453125 115.421875 266.140625 C 115.753906 265.828125 116.171875 265.578125 116.671875 265.390625 C 117.171875 265.203125 117.753906 265.109375 118.421875 265.109375 Z M 113.5 265.296875 "/>
<path fill-rule="nonzero" fill="rgb(100%, 100%, 100%)" fill-opacity="1" d="M 124.625 276.5 L 124.625 265.28125 L 126.953125 265.28125 L 126.953125 276.5 Z M 123.5 265.296875 "/>
<path fill-rule="nonzero" fill="rgb(100%, 100%, 100%)" fill-opacity="1" d="M 136.242188 274.4375 L 136.242188 276.5 L 129.023438 276.5 L 129.023438 265.28125 L 131.351562 265.28125 L 131.351562 274.4375 Z M 127.898438 265.296875 "/>
<path fill-rule="nonzero" fill="rgb(0%, 12.941176%, 44.313725%)" fill-opacity="1" d="M 185.65625 267.03125 L 185.65625 270.875 L 184.0625 270.875 L 184.0625 267.03125 L 182.3125 267.03125 L 182.3125 265.484375 L 187.421875 265.484375 L 187.421875 267.03125 Z M 192.9375 270.875 L 192.9375 268.640625 L 191.71875 270.8125 L 191 270.8125 L 189.78125 268.640625 L 189.78125 270.875 L 188.1875 270.875 L 188.1875 265.484375 L 189.546875 265.484375 L 191.359375 268.734375 L 193.171875 265.484375 L 194.546875 265.484375 L 194.546875 270.875 Z M 182 265.496094 "/>
<path fill-rule="nonzero" fill="rgb(100%, 100%, 100%)" fill-opacity="1" d="M 220 46 L 410 46 L 410 236 L 220 236 Z M 220 46 "/>
<path fill="none" stroke-width="1" stroke-linecap="butt" stroke-linejoin="miter" stroke="rgb(0%, 0%, 0%)" stroke-opacity="1" stroke-miterlimit="10" d="M 4 4.5 L 11 4.5 M 14 4.5 L 17 4.5 M 22 4.5 L 23 4.5 M 26 4.5 L 27 4.5 M 28 4.5 L 30 4.5 M 32 4.5 L 33 4.5 M 34 4.5 L 41 4.5 M 4 5.5 L 5 5.5 M 10 5.5 L 11 5.5 M 13 5.5 L 15 5.5 M 17 5.5 L 18 5.5 M 19 5.5 L 21 5.5 M 23 5.5 L 25 5.5 M 26 5.5 L 28 5.5 M 29 5.5 L 31 5.5 M 34 5.5 L 35 5.5 M 40 5.5 L 41 5.5 M 4 6.5 L 5 6.5 M 6 6.5 L 9 6.5 M 10 6.5 L 11 6.5 M 12 6.5 L 14 6.5 M 16 6.5 L 17 6.5 M 19 6.5 L 21 6.5 M 24 6.5 L 27 6.5 M 28 6.5 L 29 6.5 M 31 6.5 L 33 6.5 M 34 6.5 L 35 6.5 M 36 6.5 L 39 6.5 M 40 6.5 L 41 6.5 M 4 7.5 L 5 7.5 M 6 7.5 L 9 7.5 M 10 7.5 L 11 7.5 M 12 7.5 L 13 7.5 M 16 7.5 L 17 7.5 M 18 7.5 L 22 7.5 M 27 7.5 L 32 7.5 M 34 7.5 L 35 7.5 M 36 7.5 L 39 7.5 M 40 7.5 L 41 7.5 M 4 8.5 L 5 8.5 M 6 8.5 L 9 8.5 M 10 8.5 L 11 8.5 M 12 8.5 L 13 8.5 M 17 8.5 L 19 8.5 M 20 8.5 L 26 8.5 M 27 8.5 L 28 8.5 M 34 8.5 L 35 8.5 M 36 8.5 L 39 8.5 M 40 8.5 L 41 8.5 M 4 9.5 L 5 9.5 M 10 9.5 L 11 9.5 M 12 9.5 L 13 9.5 M 18 9.5 L 20 9.5 M 22 9.5 L 23 9.5 M 24 9.5 L 26 9.5 M 28 9.5 L 29 9.5 M 31 9.5 L 32 9.5 M 34 9.5 L 35 9.5 M 40 9.5 L 41 9.5 M 4 10.5 L 11 10.5 M 12 10.5 L 13 10.5 M 14 10.5 L 15 10.5 M 16 10.5 L 17 10.5 M 18 10.5 L 19 10.5 M 20 10.5 L 21 10.5 M 22 10.5 L 23 10.5 M 24 10.5 L 25 10.5 M 26 10.5 L 27 10.5 M 28 10.5 L 29 10.5 M 30 10.5 L 31 10.5 M 32 10.5 L 33 10.5 M 34 10.5 L 41 10.5 M 12 11.5 L 14 11.5 M 15 11.5 L 23 11.5 M 27 11.5 L 28 11.5 M 29 11.5 L 30 11.5 M 31 11.5 L 33 11.5 M 4 12.5 L 5 12.5 M 6 12.5 L 11 12.5 M 13 12.5 L 16 12.5 M 18 12.5 L 21 12.5 M 23 12.5 L 27 12.5 M 28 12.5 L 30 12.5 M 31 12.5 L 33 12.5 M 34 12.5 L 39 12.5 M 7 13.5 L 9 13.5 M 11 13.5 L 12 13.5 M 13 13.5 L 15 13.5 M 19 13.5 L 20 13.5 M 22 13.5 L 23 13.5 M 26 13.5 L 27 13.5 M 30 13.5 L 32 13.5 M 37 13.5 L 38 13.5 M 39 13.5 L 40 13.5 M 7 14.5 L 8 14.5 M 9 14.5 L 13 14.5 M 15 14.5 L 21 14.5 M 23 14.5 L 25 14.5 M 26 14.5 L 31 14.5 M 32 14.5 L 33 14.5 M 34 14.5 L 35 14.5 M 36 14.5 L 37 14.5 M 38 14.5 L 41 14.5 M 5 15.5 L 6 15.5 M 8 15.5 L 9 15.5 M 11 15.5 L 12 15.5 M 13 15.5 L 14 15.5 M 16 15.5 L 17 15.5 M 19 15.5 L 20 15.5 M 22 15.5 L 23 15.5 M 24 15.5 L 27 15.5 M 28 15.5 L 29 15.5 M 30 15.5 L 34 15.5 M 37 15.5 L 38 15.5 M 40 15.5 L 41 15.5 M 4 16.5 L 8 16.5 M 9 16.5 L 11 16.5 M 13 16.5 L 14 16.5 M 15 16.5 L 20 16.5 M 21 16.5 L 23 16.5 M 26 16.5 L 27 16.5 M 28 16.5 L 35 16.5 M 36 16.5 L 37 16.5 M 38 16.5 L 41 16.5 M 14 17.5 L 15 17.5 M 20 17.5 L 21 17.5 M 22 17.5 L 25 17.5 M 27 17.5 L 28 17.5 M 30 17.5 L 31 17.5 M 32 17.5 L 33 17.5 M 35 17.5 L 36 17.5 M 39 17.5 L 40 17.5 M 7 18.5 L 8 18.5 M 10 18.5 L 11 18.5 M 13 18.5 L 14 18.5 M 15 18.5 L 17 18.5 M 18 18.5 L 21 18.5 M 22 18.5 L 23 18.5 M 25 18.5 L 27 18.5 M 28 18.5 L 29 18.5 M 30 18.5 L 33 18.5 M 35 18.5 L 38 18.5 M 39 18.5 L 41 18.5 M 5 19.5 L 6 19.5 M 8 19.5 L 10 19.5 M 11 19.5 L 12 19.5 M 14 19.5 L 20 19.5 M 21 19.5 L 25 19.5 M 27 19.5 L 28 19.5 M 29 19.5 L 30 19.5 M 34 19.5 L 37 19.5 M 39 19.5 L 40 19.5 M 4 20.5 L 5 20.5 M 6 20.5 L 8 20.5 M 9 20.5 L 13 20.5 M 16 20.5 L 17 20.5 M 19 20.5 L 20 20.5 M 27 20.5 L 29 20.5 M 30 20.5 L 32 20.5 M 33 20.5 L 35 20.5 M 38 20.5 L 40 20.5 M 7 21.5 L 8 21.5 M 11 21.5 L 13 21.5 M 14 21.5 L 15 21.5 M 16 21.5 L 17 21.5 M 19 21.5 L 22 21.5 M 23 21.5 L 28 21.5 M 30 21.5 L 32 21.5 M 33 21.5 L 37 21.5 M 38 21.5 L 40 21.5 M 5 22.5 L 8 22.5 M 10 22.5 L 14 22.5 M 17 22.5 L 19 22.5 M 23 22.5 L 24 22.5 M 27 22.5 L 29 22.5 M 32 22.5 L 34 22.5 M 39 22.5 L 41 22.5 M 5 23.5 L 7 23.5 M 12 23.5 L 13 23.5 M 14 23.5 L 15 23.5 M 17 23.5 L 19 23.5 M 20 23.5 L 21 23.5 M 24 23.5 L 27 23.5 M 31 23.5 L 34 23.5 M 36 23.5 L 37 23.5 M 40 23.5 L 41 23.5 M 5 24.5 L 6 24.5 M 10 24.5 L 11 24.5 M 16 24.5 L 18 24.5 M 21 24.5 L 22 24.5 M 26 24.5 L 27 24.5 M 28 24.5 L 32 24.5 M 33 24.5 L 35 24.5 M 36 24.5 L 39 24.5 M 4 25.5 L 5 25.5 M 6 25.5 L 7 25.5 M 8 25.5 L 9 25.5 M 14 25.5 L 15 25.5 M 16 25.5 L 19 25.5 M 20 25.5 L 26 25.5 M 27 25.5 L 28 25.5 M 30 25.5 L 31 25.5 M 32 25.5 L 33 25.5 M 37 25.5 L 38 25.5 M 39 25.5 L 40 25.5 M 4 26.5 L 9 26.5 M 10 26.5 L 11 26.5 M 16 26.5 L 18 26.5 M 19 26.5 L 20 26.5 M 22 26.5 L 23 26.5 M 24 26.5 L 27 26.5 M 31 26.5 L 33 26.5 M 34 26.5 L 38 26.5 M 40 26.5 L 41 26.5 M 5 27.5 L 7 27.5 M 11 27.5 L 12 27.5 M 13 27.5 L 15 27.5 M 16 27.5 L 17 27.5 M 18 27.5 L 20 27.5 M 21 27.5 L 23 27.5 M 26 27.5 L 27 27.5 M 28 27.5 L 33 27.5 M 34 27.5 L 37 27.5 M 39 27.5 L 41 27.5 M 4 28.5 L 6 28.5 M 10 28.5 L 12 28.5 M 13 28.5 L 14 28.5 M 18 28.5 L 20 28.5 M 23 28.5 L 26 28.5 M 27 28.5 L 28 28.5 M 31 28.5 L 36 28.5 M 38 28.5 L 39 28.5 M 4 29.5 L 6 29.5 M 7 29.5 L 9 29.5 M 15 29.5 L 18 29.5 M 19 29.5 L 20 29.5 M 22 29.5 L 23 29.5 M 25 29.5 L 26 29.5 M 27 29.5 L 29 29.5 M 30 29.5 L 34 29.5 M 37 29.5 L 38 29.5 M 4 30.5 L 5 30.5 M 6 30.5 L 8 30.5 M 9 30.5 L 11 30.5 M 12 30.5 L 14 30.5 M 16 30.5 L 18 30.5 M 19 30.5 L 20 30.5 M 21 30.5 L 29 30.5 M 30 30.5 L 31 30.5 M 33 30.5 L 34 30.5 M 38 30.5 L 41 30.5 M 4 31.5 L 5 31.5 M 8 31.5 L 10 31.5 M 11 31.5 L 12 31.5 M 13 31.5 L 14 31.5 M 19 31.5 L 21 31.5 M 24 31.5 L 27 31.5 M 31 31.5 L 33 31.5 M 40 31.5 L 41 31.5 M 4 32.5 L 5 32.5 M 10 32.5 L 12 32.5 M 14 32.5 L 15 32.5 M 16 32.5 L 17 32.5 M 20 32.5 L 22 32.5 M 23 32.5 L 24 32.5 M 26 32.5 L 27 32.5 M 28 32.5 L 39 32.5 M 40 32.5 L 41 32.5 M 12 33.5 L 14 33.5 M 15 33.5 L 19 33.5 M 20 33.5 L 28 33.5 M 30 33.5 L 33 33.5 M 36 33.5 L 38 33.5 M 39 33.5 L 40 33.5 M 4 34.5 L 11 34.5 M 15 34.5 L 17 34.5 M 18 34.5 L 21 34.5 M 25 34.5 L 27 34.5 M 28 34.5 L 29 34.5 M 32 34.5 L 33 34.5 M 34 34.5 L 35 34.5 M 36 34.5 L 37 34.5 M 38 34.5 L 41 34.5 M 4 35.5 L 5 35.5 M 10 35.5 L 11 35.5 M 12 35.5 L 13 35.5 M 14 35.5 L 15 35.5 M 16 35.5 L 17 35.5 M 18 35.5 L 22 35.5 M 24 35.5 L 25 35.5 M 27 35.5 L 28 35.5 M 29 35.5 L 31 35.5 M 32 35.5 L 33 35.5 M 36 35.5 L 38 35.5 M 4 36.5 L 5 36.5 M 6 36.5 L 9 36.5 M 10 36.5 L 11 36.5 M 12 36.5 L 15 36.5 M 16 36.5 L 17 36.5 M 18 36.5 L 19 36.5 M 20 36.5 L 21 36.5 M 22 36.5 L 23 36.5 M 25 36.5 L 29 36.5 M 31 36.5 L 37 36.5 M 38 36.5 L 40 36.5 M 4 37.5 L 5 37.5 M 6 37.5 L 9 37.5 M 10 37.5 L 11 37.5 M 12 37.5 L 13 37.5 M 16 37.5 L 18 37.5 M 19 37.5 L 23 37.5 M 25 37.5 L 28 37.5 M 31 37.5 L 35 37.5 M 36 37.5 L 38 37.5 M 39 37.5 L 40 37.5 M 4 38.5 L 5 38.5 M 6 38.5 L 9 38.5 M 10 38.5 L 11 38.5 M 12 38.5 L 15 38.5 M 16 38.5 L 17 38.5 M 18 38.5 L 19 38.5 M 21 38.5 L 22 38.5 M 23 38.5 L 25 38.5 M 27 38.5 L 31 38.5 M 32 38.5 L 33 38.5 M 40 38.5 L 41 38.5 M 4 39.5 L 5 39.5 M 10 39.5 L 11 39.5 M 13 39.5 L 14 39.5 M 15 39.5 L 16 39.5 M 17 39.5 L 18 39.5 M 19 39.5 L 21 39.5 M 24 39.5 L 26 39.5 M 28 39.5 L 29 39.5 M 30 39.5 L 31 39.5 M 32 39.5 L 33 39.5 M 34 39.5 L 35 39.5 M 36 39.5 L 38 39.5 M 40 39.5 L 41 39.5 M 4 40.5 L 11 40.5 M 12 40.5 L 13 40.5 M 14 40.5 L 16 40.5 M 17 40.5 L 20 40.5 M 21 40.5 L 22 40.5 M 23 40.5 L 25 40.5 M 26 40.5 L 30 40.5 M 31 40.5 L 33 40.5 M 34 40.5 L 35 40.5 M 36 40.5 L 37 40.5 M 39 40.5 L 41 40.5 " transform="matrix(4, 0, 0, 4, 220, 50)"/>
</svg>
